<?xml version="1.0" encoding="utf-8" standalone="no"?>
<!DOCTYPE svg PUBLIC "-//W3C//DTD SVG 1.1//EN"
  "http://www.w3.org/Graphics/SVG/1.1/DTD/svg11.dtd">
<!-- Created with matplotlib (http://matplotlib.org/) -->
<svg height="345pt" version="1.1" viewBox="0 0 460 345" width="460pt" xmlns="http://www.w3.org/2000/svg" xmlns:xlink="http://www.w3.org/1999/xlink">
 <defs>
  <style type="text/css">
*{stroke-linecap:butt;stroke-linejoin:round;}
  </style>
 </defs>
 <g id="figure_1">
  <g id="patch_1">
   <path d="M 0 345.6 
L 460.8 345.6 
L 460.8 0 
L 0 0 
z
" style="fill:#ffffff;"/>
  </g>
  <g id="axes_1">
   <g id="patch_2">
    <path d="M 57.6 307.584 
L 414.72 307.584 
L 414.72 41.472 
L 57.6 41.472 
z
" style="fill:#ffffff;"/>
   </g>
   <g id="matplotlib.axis_1">
    <g id="xtick_1">
     <g id="line2d_1">
      <defs>
       <path d="M 0 0 
L 0 3.5 
" id="m848426b529" style="stroke:#000000;stroke-width:0.8;"/>
      </defs>
      <g>
       <use style="stroke:#000000;stroke-width:0.8;" x="73.832727" xlink:href="#m848426b529" y="307.584"/>
      </g>
     </g>
     <g id="text_1">
      <!-- 0 -->
      <defs>
       <path d="M 31.78125 66.40625 
Q 24.171875 66.40625 20.328125 58.90625 
Q 16.5 51.421875 16.5 36.375 
Q 16.5 21.390625 20.328125 13.890625 
Q 24.171875 6.390625 31.78125 6.390625 
Q 39.453125 6.390625 43.28125 13.890625 
Q 47.125 21.390625 47.125 36.375 
Q 47.125 51.421875 43.28125 58.90625 
Q 39.453125 66.40625 31.78125 66.40625 
z
M 31.78125 74.21875 
Q 44.046875 74.21875 50.515625 64.515625 
Q 56.984375 54.828125 56.984375 36.375 
Q 56.984375 17.96875 50.515625 8.265625 
Q 44.046875 -1.421875 31.78125 -1.421875 
Q 19.53125 -1.421875 13.0625 8.265625 
Q 6.59375 17.96875 6.59375 36.375 
Q 6.59375 54.828125 13.0625 64.515625 
Q 19.53125 74.21875 31.78125 74.21875 
z
" id="DejaVuSans-30"/>
      </defs>
      <g transform="translate(70.651477 322.182437)scale(0.1 -0.1)">
       <use xlink:href="#DejaVuSans-30"/>
      </g>
     </g>
    </g>
    <g id="xtick_2">
     <g id="line2d_2">
      <g>
       <use style="stroke:#000000;stroke-width:0.8;" x="136.50735" xlink:href="#m848426b529" y="307.584"/>
      </g>
     </g>
     <g id="text_2">
      <!-- 100 -->
      <defs>
       <path d="M 12.40625 8.296875 
L 28.515625 8.296875 
L 28.515625 63.921875 
L 10.984375 60.40625 
L 10.984375 69.390625 
L 28.421875 72.90625 
L 38.28125 72.90625 
L 38.28125 8.296875 
L 54.390625 8.296875 
L 54.390625 0 
L 12.40625 0 
z
" id="DejaVuSans-31"/>
      </defs>
      <g transform="translate(126.9636 322.182437)scale(0.1 -0.1)">
       <use xlink:href="#DejaVuSans-31"/>
       <use x="63.623047" xlink:href="#DejaVuSans-30"/>
       <use x="127.246094" xlink:href="#DejaVuSans-30"/>
      </g>
     </g>
    </g>
    <g id="xtick_3">
     <g id="line2d_3">
      <g>
       <use style="stroke:#000000;stroke-width:0.8;" x="199.181973" xlink:href="#m848426b529" y="307.584"/>
      </g>
     </g>
     <g id="text_3">
      <!-- 200 -->
      <defs>
       <path d="M 19.1875 8.296875 
L 53.609375 8.296875 
L 53.609375 0 
L 7.328125 0 
L 7.328125 8.296875 
Q 12.9375 14.109375 22.625 23.890625 
Q 32.328125 33.6875 34.8125 36.53125 
Q 39.546875 41.84375 41.421875 45.53125 
Q 43.3125 49.21875 43.3125 52.78125 
Q 43.3125 58.59375 39.234375 62.25 
Q 35.15625 65.921875 28.609375 65.921875 
Q 23.96875 65.921875 18.8125 64.3125 
Q 13.671875 62.703125 7.8125 59.421875 
L 7.8125 69.390625 
Q 13.765625 71.78125 18.9375 73 
Q 24.125 74.21875 28.421875 74.21875 
Q 39.75 74.21875 46.484375 68.546875 
Q 53.21875 62.890625 53.21875 53.421875 
Q 53.21875 48.921875 51.53125 44.890625 
Q 49.859375 40.875 45.40625 35.40625 
Q 44.1875 33.984375 37.640625 27.21875 
Q 31.109375 20.453125 19.1875 8.296875 
z
" id="DejaVuSans-32"/>
      </defs>
      <g transform="translate(189.638223 322.182437)scale(0.1 -0.1)">
       <use xlink:href="#DejaVuSans-32"/>
       <use x="63.623047" xlink:href="#DejaVuSans-30"/>
       <use x="127.246094" xlink:href="#DejaVuSans-30"/>
      </g>
     </g>
    </g>
    <g id="xtick_4">
     <g id="line2d_4">
      <g>
       <use style="stroke:#000000;stroke-width:0.8;" x="261.856595" xlink:href="#m848426b529" y="307.584"/>
      </g>
     </g>
     <g id="text_4">
      <!-- 300 -->
      <defs>
       <path d="M 40.578125 39.3125 
Q 47.65625 37.796875 51.625 33 
Q 55.609375 28.21875 55.609375 21.1875 
Q 55.609375 10.40625 48.1875 4.484375 
Q 40.765625 -1.421875 27.09375 -1.421875 
Q 22.515625 -1.421875 17.65625 -0.515625 
Q 12.796875 0.390625 7.625 2.203125 
L 7.625 11.71875 
Q 11.71875 9.328125 16.59375 8.109375 
Q 21.484375 6.890625 26.8125 6.890625 
Q 36.078125 6.890625 40.9375 10.546875 
Q 45.796875 14.203125 45.796875 21.1875 
Q 45.796875 27.640625 41.28125 31.265625 
Q 36.765625 34.90625 28.71875 34.90625 
L 20.21875 34.90625 
L 20.21875 43.015625 
L 29.109375 43.015625 
Q 36.375 43.015625 40.234375 45.921875 
Q 44.09375 48.828125 44.09375 54.296875 
Q 44.09375 59.90625 40.109375 62.90625 
Q 36.140625 65.921875 28.71875 65.921875 
Q 24.65625 65.921875 20.015625 65.03125 
Q 15.375 64.15625 9.8125 62.3125 
L 9.8125 71.09375 
Q 15.4375 72.65625 20.34375 73.4375 
Q 25.25 74.21875 29.59375 74.21875 
Q 40.828125 74.21875 47.359375 69.109375 
Q 53.90625 64.015625 53.90625 55.328125 
Q 53.90625 49.265625 50.4375 45.09375 
Q 46.96875 40.921875 40.578125 39.3125 
z
" id="DejaVuSans-33"/>
      </defs>
      <g transform="translate(252.312845 322.182437)scale(0.1 -0.1)">
       <use xlink:href="#DejaVuSans-33"/>
       <use x="63.623047" xlink:href="#DejaVuSans-30"/>
       <use x="127.246094" xlink:href="#DejaVuSans-30"/>
      </g>
     </g>
    </g>
    <g id="xtick_5">
     <g id="line2d_5">
      <g>
       <use style="stroke:#000000;stroke-width:0.8;" x="324.531218" xlink:href="#m848426b529" y="307.584"/>
      </g>
     </g>
     <g id="text_5">
      <!-- 400 -->
      <defs>
       <path d="M 37.796875 64.3125 
L 12.890625 25.390625 
L 37.796875 25.390625 
z
M 35.203125 72.90625 
L 47.609375 72.90625 
L 47.609375 25.390625 
L 58.015625 25.390625 
L 58.015625 17.1875 
L 47.609375 17.1875 
L 47.609375 0 
L 37.796875 0 
L 37.796875 17.1875 
L 4.890625 17.1875 
L 4.890625 26.703125 
z
" id="DejaVuSans-34"/>
      </defs>
      <g transform="translate(314.987468 322.182437)scale(0.1 -0.1)">
       <use xlink:href="#DejaVuSans-34"/>
       <use x="63.623047" xlink:href="#DejaVuSans-30"/>
       <use x="127.246094" xlink:href="#DejaVuSans-30"/>
      </g>
     </g>
    </g>
    <g id="xtick_6">
     <g id="line2d_6">
      <g>
       <use style="stroke:#000000;stroke-width:0.8;" x="387.205841" xlink:href="#m848426b529" y="307.584"/>
      </g>
     </g>
     <g id="text_6">
      <!-- 500 -->
      <defs>
       <path d="M 10.796875 72.90625 
L 49.515625 72.90625 
L 49.515625 64.59375 
L 19.828125 64.59375 
L 19.828125 46.734375 
Q 21.96875 47.46875 24.109375 47.828125 
Q 26.265625 48.1875 28.421875 48.1875 
Q 40.625 48.1875 47.75 41.5 
Q 54.890625 34.8125 54.890625 23.390625 
Q 54.890625 11.625 47.5625 5.09375 
Q 40.234375 -1.421875 26.90625 -1.421875 
Q 22.3125 -1.421875 17.546875 -0.640625 
Q 12.796875 0.140625 7.71875 1.703125 
L 7.71875 11.625 
Q 12.109375 9.234375 16.796875 8.0625 
Q 21.484375 6.890625 26.703125 6.890625 
Q 35.15625 6.890625 40.078125 11.328125 
Q 45.015625 15.765625 45.015625 23.390625 
Q 45.015625 31 40.078125 35.4375 
Q 35.15625 39.890625 26.703125 39.890625 
Q 22.75 39.890625 18.8125 39.015625 
Q 14.890625 38.140625 10.796875 36.28125 
z
" id="DejaVuSans-35"/>
      </defs>
      <g transform="translate(377.662091 322.182437)scale(0.1 -0.1)">
       <use xlink:href="#DejaVuSans-35"/>
       <use x="63.623047" xlink:href="#DejaVuSans-30"/>
       <use x="127.246094" xlink:href="#DejaVuSans-30"/>
      </g>
     </g>
    </g>
    <g id="text_7">
     <!-- episode -->
     <defs>
      <path d="M 56.203125 29.59375 
L 56.203125 25.203125 
L 14.890625 25.203125 
Q 15.484375 15.921875 20.484375 11.0625 
Q 25.484375 6.203125 34.421875 6.203125 
Q 39.59375 6.203125 44.453125 7.46875 
Q 49.3125 8.734375 54.109375 11.28125 
L 54.109375 2.78125 
Q 49.265625 0.734375 44.1875 -0.34375 
Q 39.109375 -1.421875 33.890625 -1.421875 
Q 20.796875 -1.421875 13.15625 6.1875 
Q 5.515625 13.8125 5.515625 26.8125 
Q 5.515625 40.234375 12.765625 48.109375 
Q 20.015625 56 32.328125 56 
Q 43.359375 56 49.78125 48.890625 
Q 56.203125 41.796875 56.203125 29.59375 
z
M 47.21875 32.234375 
Q 47.125 39.59375 43.09375 43.984375 
Q 39.0625 48.390625 32.421875 48.390625 
Q 24.90625 48.390625 20.390625 44.140625 
Q 15.875 39.890625 15.1875 32.171875 
z
" id="DejaVuSans-65"/>
      <path d="M 18.109375 8.203125 
L 18.109375 -20.796875 
L 9.078125 -20.796875 
L 9.078125 54.6875 
L 18.109375 54.6875 
L 18.109375 46.390625 
Q 20.953125 51.265625 25.265625 53.625 
Q 29.59375 56 35.59375 56 
Q 45.5625 56 51.78125 48.09375 
Q 58.015625 40.1875 58.015625 27.296875 
Q 58.015625 14.40625 51.78125 6.484375 
Q 45.5625 -1.421875 35.59375 -1.421875 
Q 29.59375 -1.421875 25.265625 0.953125 
Q 20.953125 3.328125 18.109375 8.203125 
z
M 48.6875 27.296875 
Q 48.6875 37.203125 44.609375 42.84375 
Q 40.53125 48.484375 33.40625 48.484375 
Q 26.265625 48.484375 22.1875 42.84375 
Q 18.109375 37.203125 18.109375 27.296875 
Q 18.109375 17.390625 22.1875 11.75 
Q 26.265625 6.109375 33.40625 6.109375 
Q 40.53125 6.109375 44.609375 11.75 
Q 48.6875 17.390625 48.6875 27.296875 
z
" id="DejaVuSans-70"/>
      <path d="M 9.421875 54.6875 
L 18.40625 54.6875 
L 18.40625 0 
L 9.421875 0 
z
M 9.421875 75.984375 
L 18.40625 75.984375 
L 18.40625 64.59375 
L 9.421875 64.59375 
z
" id="DejaVuSans-69"/>
      <path d="M 44.28125 53.078125 
L 44.28125 44.578125 
Q 40.484375 46.53125 36.375 47.5 
Q 32.28125 48.484375 27.875 48.484375 
Q 21.1875 48.484375 17.84375 46.4375 
Q 14.5 44.390625 14.5 40.28125 
Q 14.5 37.15625 16.890625 35.375 
Q 19.28125 33.59375 26.515625 31.984375 
L 29.59375 31.296875 
Q 39.15625 29.25 43.1875 25.515625 
Q 47.21875 21.78125 47.21875 15.09375 
Q 47.21875 7.46875 41.1875 3.015625 
Q 35.15625 -1.421875 24.609375 -1.421875 
Q 20.21875 -1.421875 15.453125 -0.5625 
Q 10.6875 0.296875 5.421875 2 
L 5.421875 11.28125 
Q 10.40625 8.6875 15.234375 7.390625 
Q 20.0625 6.109375 24.8125 6.109375 
Q 31.15625 6.109375 34.5625 8.28125 
Q 37.984375 10.453125 37.984375 14.40625 
Q 37.984375 18.0625 35.515625 20.015625 
Q 33.0625 21.96875 24.703125 23.78125 
L 21.578125 24.515625 
Q 13.234375 26.265625 9.515625 29.90625 
Q 5.8125 33.546875 5.8125 39.890625 
Q 5.8125 47.609375 11.28125 51.796875 
Q 16.75 56 26.8125 56 
Q 31.78125 56 36.171875 55.265625 
Q 40.578125 54.546875 44.28125 53.078125 
z
" id="DejaVuSans-73"/>
      <path d="M 30.609375 48.390625 
Q 23.390625 48.390625 19.1875 42.75 
Q 14.984375 37.109375 14.984375 27.296875 
Q 14.984375 17.484375 19.15625 11.84375 
Q 23.34375 6.203125 30.609375 6.203125 
Q 37.796875 6.203125 41.984375 11.859375 
Q 46.1875 17.53125 46.1875 27.296875 
Q 46.1875 37.015625 41.984375 42.703125 
Q 37.796875 48.390625 30.609375 48.390625 
z
M 30.609375 56 
Q 42.328125 56 49.015625 48.375 
Q 55.71875 40.765625 55.71875 27.296875 
Q 55.71875 13.875 49.015625 6.21875 
Q 42.328125 -1.421875 30.609375 -1.421875 
Q 18.84375 -1.421875 12.171875 6.21875 
Q 5.515625 13.875 5.515625 27.296875 
Q 5.515625 40.765625 12.171875 48.375 
Q 18.84375 56 30.609375 56 
z
" id="DejaVuSans-6f"/>
      <path d="M 45.40625 46.390625 
L 45.40625 75.984375 
L 54.390625 75.984375 
L 54.390625 0 
L 45.40625 0 
L 45.40625 8.203125 
Q 42.578125 3.328125 38.25 0.953125 
Q 33.9375 -1.421875 27.875 -1.421875 
Q 17.96875 -1.421875 11.734375 6.484375 
Q 5.515625 14.40625 5.515625 27.296875 
Q 5.515625 40.1875 11.734375 48.09375 
Q 17.96875 56 27.875 56 
Q 33.9375 56 38.25 53.625 
Q 42.578125 51.265625 45.40625 46.390625 
z
M 14.796875 27.296875 
Q 14.796875 17.390625 18.875 11.75 
Q 22.953125 6.109375 30.078125 6.109375 
Q 37.203125 6.109375 41.296875 11.75 
Q 45.40625 17.390625 45.40625 27.296875 
Q 45.40625 37.203125 41.296875 42.84375 
Q 37.203125 48.484375 30.078125 48.484375 
Q 22.953125 48.484375 18.875 42.84375 
Q 14.796875 37.203125 14.796875 27.296875 
z
" id="DejaVuSans-64"/>
     </defs>
     <g transform="translate(216.605312 335.860562)scale(0.1 -0.1)">
      <use xlink:href="#DejaVuSans-65"/>
      <use x="61.523438" xlink:href="#DejaVuSans-70"/>
      <use x="125" xlink:href="#DejaVuSans-69"/>
      <use x="152.783203" xlink:href="#DejaVuSans-73"/>
      <use x="204.882812" xlink:href="#DejaVuSans-6f"/>
      <use x="266.064453" xlink:href="#DejaVuSans-64"/>
      <use x="329.541016" xlink:href="#DejaVuSans-65"/>
     </g>
    </g>
   </g>
   <g id="matplotlib.axis_2">
    <g id="ytick_1">
     <g id="line2d_7">
      <defs>
       <path d="M 0 0 
L -3.5 0 
" id="m54c3170a4b" style="stroke:#000000;stroke-width:0.8;"/>
      </defs>
      <g>
       <use style="stroke:#000000;stroke-width:0.8;" x="57.6" xlink:href="#m54c3170a4b" y="288.32"/>
      </g>
     </g>
     <g id="text_8">
      <!-- 300 -->
      <g transform="translate(31.5125 292.119219)scale(0.1 -0.1)">
       <use xlink:href="#DejaVuSans-33"/>
       <use x="63.623047" xlink:href="#DejaVuSans-30"/>
       <use x="127.246094" xlink:href="#DejaVuSans-30"/>
      </g>
     </g>
    </g>
    <g id="ytick_2">
     <g id="line2d_8">
      <g>
       <use style="stroke:#000000;stroke-width:0.8;" x="57.6" xlink:href="#m54c3170a4b" y="257.423448"/>
      </g>
     </g>
     <g id="text_9">
      <!-- 350 -->
      <g transform="translate(31.5125 261.222667)scale(0.1 -0.1)">
       <use xlink:href="#DejaVuSans-33"/>
       <use x="63.623047" xlink:href="#DejaVuSans-35"/>
       <use x="127.246094" xlink:href="#DejaVuSans-30"/>
      </g>
     </g>
    </g>
    <g id="ytick_3">
     <g id="line2d_9">
      <g>
       <use style="stroke:#000000;stroke-width:0.8;" x="57.6" xlink:href="#m54c3170a4b" y="226.526897"/>
      </g>
     </g>
     <g id="text_10">
      <!-- 400 -->
      <g transform="translate(31.5125 230.326115)scale(0.1 -0.1)">
       <use xlink:href="#DejaVuSans-34"/>
       <use x="63.623047" xlink:href="#DejaVuSans-30"/>
       <use x="127.246094" xlink:href="#DejaVuSans-30"/>
      </g>
     </g>
    </g>
    <g id="ytick_4">
     <g id="line2d_10">
      <g>
       <use style="stroke:#000000;stroke-width:0.8;" x="57.6" xlink:href="#m54c3170a4b" y="195.630345"/>
      </g>
     </g>
     <g id="text_11">
      <!-- 450 -->
      <g transform="translate(31.5125 199.429564)scale(0.1 -0.1)">
       <use xlink:href="#DejaVuSans-34"/>
       <use x="63.623047" xlink:href="#DejaVuSans-35"/>
       <use x="127.246094" xlink:href="#DejaVuSans-30"/>
      </g>
     </g>
    </g>
    <g id="ytick_5">
     <g id="line2d_11">
      <g>
       <use style="stroke:#000000;stroke-width:0.8;" x="57.6" xlink:href="#m54c3170a4b" y="164.733793"/>
      </g>
     </g>
     <g id="text_12">
      <!-- 500 -->
      <g transform="translate(31.5125 168.533012)scale(0.1 -0.1)">
       <use xlink:href="#DejaVuSans-35"/>
       <use x="63.623047" xlink:href="#DejaVuSans-30"/>
       <use x="127.246094" xlink:href="#DejaVuSans-30"/>
      </g>
     </g>
    </g>
    <g id="ytick_6">
     <g id="line2d_12">
      <g>
       <use style="stroke:#000000;stroke-width:0.8;" x="57.6" xlink:href="#m54c3170a4b" y="133.837241"/>
      </g>
     </g>
     <g id="text_13">
      <!-- 550 -->
      <g transform="translate(31.5125 137.63646)scale(0.1 -0.1)">
       <use xlink:href="#DejaVuSans-35"/>
       <use x="63.623047" xlink:href="#DejaVuSans-35"/>
       <use x="127.246094" xlink:href="#DejaVuSans-30"/>
      </g>
     </g>
    </g>
    <g id="ytick_7">
     <g id="line2d_13">
      <g>
       <use style="stroke:#000000;stroke-width:0.8;" x="57.6" xlink:href="#m54c3170a4b" y="102.94069"/>
      </g>
     </g>
     <g id="text_14">
      <!-- 600 -->
      <defs>
       <path d="M 33.015625 40.375 
Q 26.375 40.375 22.484375 35.828125 
Q 18.609375 31.296875 18.609375 23.390625 
Q 18.609375 15.53125 22.484375 10.953125 
Q 26.375 6.390625 33.015625 6.390625 
Q 39.65625 6.390625 43.53125 10.953125 
Q 47.40625 15.53125 47.40625 23.390625 
Q 47.40625 31.296875 43.53125 35.828125 
Q 39.65625 40.375 33.015625 40.375 
z
M 52.59375 71.296875 
L 52.59375 62.3125 
Q 48.875 64.0625 45.09375 64.984375 
Q 41.3125 65.921875 37.59375 65.921875 
Q 27.828125 65.921875 22.671875 59.328125 
Q 17.53125 52.734375 16.796875 39.40625 
Q 19.671875 43.65625 24.015625 45.921875 
Q 28.375 48.1875 33.59375 48.1875 
Q 44.578125 48.1875 50.953125 41.515625 
Q 57.328125 34.859375 57.328125 23.390625 
Q 57.328125 12.15625 50.6875 5.359375 
Q 44.046875 -1.421875 33.015625 -1.421875 
Q 20.359375 -1.421875 13.671875 8.265625 
Q 6.984375 17.96875 6.984375 36.375 
Q 6.984375 53.65625 15.1875 63.9375 
Q 23.390625 74.21875 37.203125 74.21875 
Q 40.921875 74.21875 44.703125 73.484375 
Q 48.484375 72.75 52.59375 71.296875 
z
" id="DejaVuSans-36"/>
      </defs>
      <g transform="translate(31.5125 106.739908)scale(0.1 -0.1)">
       <use xlink:href="#DejaVuSans-36"/>
       <use x="63.623047" xlink:href="#DejaVuSans-30"/>
       <use x="127.246094" xlink:href="#DejaVuSans-30"/>
      </g>
     </g>
    </g>
    <g id="ytick_8">
     <g id="line2d_14">
      <g>
       <use style="stroke:#000000;stroke-width:0.8;" x="57.6" xlink:href="#m54c3170a4b" y="72.044138"/>
      </g>
     </g>
     <g id="text_15">
      <!-- 650 -->
      <g transform="translate(31.5125 75.843357)scale(0.1 -0.1)">
       <use xlink:href="#DejaVuSans-36"/>
       <use x="63.623047" xlink:href="#DejaVuSans-35"/>
       <use x="127.246094" xlink:href="#DejaVuSans-30"/>
      </g>
     </g>
    </g>
    <g id="ytick_9">
     <g id="line2d_15">
      <g>
       <use style="stroke:#000000;stroke-width:0.8;" x="57.6" xlink:href="#m54c3170a4b" y="41.147586"/>
      </g>
     </g>
     <g id="text_16">
      <!-- 700 -->
      <defs>
       <path d="M 8.203125 72.90625 
L 55.078125 72.90625 
L 55.078125 68.703125 
L 28.609375 0 
L 18.3125 0 
L 43.21875 64.59375 
L 8.203125 64.59375 
z
" id="DejaVuSans-37"/>
      </defs>
      <g transform="translate(31.5125 44.946805)scale(0.1 -0.1)">
       <use xlink:href="#DejaVuSans-37"/>
       <use x="63.623047" xlink:href="#DejaVuSans-30"/>
       <use x="127.246094" xlink:href="#DejaVuSans-30"/>
      </g>
     </g>
    </g>
    <g id="text_17">
     <!-- score -->
     <defs>
      <path d="M 48.78125 52.59375 
L 48.78125 44.1875 
Q 44.96875 46.296875 41.140625 47.34375 
Q 37.3125 48.390625 33.40625 48.390625 
Q 24.65625 48.390625 19.8125 42.84375 
Q 14.984375 37.3125 14.984375 27.296875 
Q 14.984375 17.28125 19.8125 11.734375 
Q 24.65625 6.203125 33.40625 6.203125 
Q 37.3125 6.203125 41.140625 7.25 
Q 44.96875 8.296875 48.78125 10.40625 
L 48.78125 2.09375 
Q 45.015625 0.34375 40.984375 -0.53125 
Q 36.96875 -1.421875 32.421875 -1.421875 
Q 20.0625 -1.421875 12.78125 6.34375 
Q 5.515625 14.109375 5.515625 27.296875 
Q 5.515625 40.671875 12.859375 48.328125 
Q 20.21875 56 33.015625 56 
Q 37.15625 56 41.109375 55.140625 
Q 45.0625 54.296875 48.78125 52.59375 
z
" id="DejaVuSans-63"/>
      <path d="M 41.109375 46.296875 
Q 39.59375 47.171875 37.8125 47.578125 
Q 36.03125 48 33.890625 48 
Q 26.265625 48 22.1875 43.046875 
Q 18.109375 38.09375 18.109375 28.8125 
L 18.109375 0 
L 9.078125 0 
L 9.078125 54.6875 
L 18.109375 54.6875 
L 18.109375 46.1875 
Q 20.953125 51.171875 25.484375 53.578125 
Q 30.03125 56 36.53125 56 
Q 37.453125 56 38.578125 55.875 
Q 39.703125 55.765625 41.0625 55.515625 
z
" id="DejaVuSans-72"/>
     </defs>
     <g transform="translate(25.432812 188.07175)rotate(-90)scale(0.1 -0.1)">
      <use xlink:href="#DejaVuSans-73"/>
      <use x="52.099609" xlink:href="#DejaVuSans-63"/>
      <use x="107.080078" xlink:href="#DejaVuSans-6f"/>
      <use x="168.261719" xlink:href="#DejaVuSans-72"/>
      <use x="209.34375" xlink:href="#DejaVuSans-65"/>
     </g>
    </g>
   </g>
   <g id="line2d_16">
    <path clip-path="url(#pe5d67f05c7)" d="M 73.832727 295.488 
L 74.459473 294.49931 
L 75.712966 290.482759 
L 76.339712 282.573241 
L 76.966458 278.062345 
L 77.593205 274.910897 
L 78.219951 273.489655 
L 80.10019 265.518345 
L 81.980428 251.553103 
L 82.607174 249.575724 
L 83.860667 245.064828 
L 84.487413 243.272828 
L 85.114159 240.92469 
L 85.740906 233.633103 
L 86.367652 230.17269 
L 86.994398 225.352828 
L 87.621144 225.105655 
L 88.24789 219.729655 
L 88.874637 216.948966 
L 89.501383 214.971586 
L 90.128129 215.095172 
L 90.754875 213.488552 
L 91.381622 210.955034 
L 93.26186 196.928 
L 93.888607 195.815724 
L 94.515353 194.023724 
L 95.142099 193.714759 
L 95.768845 191.984552 
L 96.395591 190.872276 
L 97.022338 190.501517 
L 97.649084 189.698207 
L 98.27583 188.647724 
L 99.529323 199.152552 
L 100.156069 201.747862 
L 100.782815 199.028966 
L 101.409561 199.276138 
L 102.036307 196.557241 
L 102.663054 197.298759 
L 103.2898 194.641655 
L 103.916546 195.074207 
L 105.170039 192.293517 
L 105.796785 190.810483 
L 106.423531 191.119448 
L 107.050277 189.76 
L 107.677024 190.068966 
L 108.30377 186.97931 
L 108.930516 186.423172 
L 109.557262 184.692966 
L 110.184008 184.692966 
L 110.810755 184.260414 
L 111.437501 178.266483 
L 112.064247 177.772138 
L 112.690993 176.845241 
L 113.31774 176.41269 
L 113.944486 174.929655 
L 114.571232 177.339586 
L 115.197978 175.794759 
L 115.824724 175.300414 
L 116.451471 175.053241 
L 117.078217 171.345655 
L 117.704963 170.295172 
L 118.331709 168.750345 
L 118.958456 170.171586 
L 119.585202 167.947034 
L 120.211948 163.86869 
L 120.838694 160.717241 
L 121.465441 156.638897 
L 122.092187 151.510069 
L 122.718933 151.633655 
L 123.345679 150.027034 
L 123.972425 149.841655 
L 124.599172 148.111448 
L 125.852664 143.724138 
L 126.47941 144.280276 
L 127.732903 138.533517 
L 128.359649 138.162759 
L 128.986395 138.100966 
L 130.239888 135.629241 
L 130.866634 136.432552 
L 131.49338 134.084414 
L 132.120126 142.117517 
L 132.746873 141.623172 
L 134.000365 138.59531 
L 134.627111 132.477793 
L 135.253857 132.477793 
L 135.880604 134.455172 
L 136.50735 133.837241 
L 137.134096 130.747586 
L 137.760842 131.365517 
L 138.387589 131.489103 
L 139.014335 138.59531 
L 139.641081 142.241103 
L 140.267827 140.819862 
L 140.894574 141.499586 
L 141.52132 142.488276 
L 142.148066 140.634483 
L 142.774812 140.819862 
L 143.401558 141.870345 
L 144.028305 148.296828 
L 144.655051 149.841655 
L 145.281797 149.038345 
L 145.908543 149.594483 
L 146.53529 148.667586 
L 147.162036 148.358621 
L 147.788782 148.852966 
L 148.415528 154.72331 
L 149.042274 155.032276 
L 149.669021 157.998345 
L 150.295767 156.51531 
L 150.922513 160.161103 
L 152.176006 163.436138 
L 152.802752 162.509241 
L 153.429498 162.818207 
L 154.056244 162.571034 
L 154.682991 164.610207 
L 155.936483 171.716414 
L 157.189975 171.160276 
L 157.816722 167.143724 
L 158.443468 167.081931 
L 159.070214 166.278621 
L 159.69696 165.969655 
L 160.323707 166.525793 
L 160.950453 165.969655 
L 162.203945 162.756414 
L 162.830691 165.289931 
L 163.457438 167.205517 
L 164.084184 166.525793 
L 164.71093 168.688552 
L 165.337676 163.86869 
L 165.964423 162.88 
L 166.591169 162.694621 
L 167.217915 163.436138 
L 168.471408 164.424828 
L 169.098154 162.014897 
L 169.7249 161.829517 
L 170.351646 159.975724 
L 170.978392 158.801655 
L 171.605139 157.936552 
L 172.231885 158.616276 
L 172.858631 159.481379 
L 173.485377 159.419586 
L 174.112124 163.806897 
L 174.73887 163.930483 
L 175.992362 157.565793 
L 176.619108 158.369103 
L 177.245855 157.998345 
L 177.872601 159.172414 
L 178.499347 154.414345 
L 179.126093 150.583172 
L 179.75284 154.537931 
L 180.379586 154.970483 
L 181.006332 154.785103 
L 181.633078 154.414345 
L 182.259824 154.599724 
L 182.886571 155.341241 
L 183.513317 157.133241 
L 184.766809 164.177655 
L 185.393556 162.818207 
L 186.020302 160.593655 
L 187.273794 157.195034 
L 187.900541 156.268138 
L 188.527287 158.49269 
L 189.780779 156.082759 
L 190.407525 157.380414 
L 191.034272 151.571862 
L 191.661018 148.049655 
L 192.287764 150.892138 
L 193.541257 147.493517 
L 194.168003 149.161931 
L 194.794749 148.296828 
L 195.421495 150.274207 
L 196.048241 150.768552 
L 196.674988 150.212414 
L 197.301734 156.020966 
L 197.92848 156.638897 
L 198.555226 157.874759 
L 199.181973 158.863448 
L 199.808719 160.964414 
L 200.435465 161.026207 
L 201.062211 161.458759 
L 201.688958 160.964414 
L 202.315704 159.975724 
L 202.94245 163.806897 
L 203.569196 162.941793 
L 204.195942 164.115862 
L 204.822689 167.576276 
L 205.449435 159.296 
L 206.076181 157.936552 
L 206.702927 157.504 
L 207.329674 157.627586 
L 207.95642 158.554483 
L 208.583166 158.801655 
L 209.209912 159.543172 
L 209.836658 160.655448 
L 210.463405 157.627586 
L 211.090151 156.824276 
L 212.97039 161.767724 
L 213.597136 161.273379 
L 214.223882 160.09931 
L 214.850628 159.666759 
L 215.477375 160.593655 
L 216.104121 162.07669 
L 216.730867 164.363034 
L 217.357613 164.548414 
L 217.984359 161.829517 
L 218.611106 161.026207 
L 219.237852 161.89131 
L 219.864598 163.559724 
L 220.491344 167.761655 
L 221.118091 165.907862 
L 221.744837 166.155034 
L 222.371583 166.031448 
L 222.998329 163.745103 
L 223.625075 164.795586 
L 224.251822 164.486621 
L 224.878568 165.104552 
L 225.505314 162.694621 
L 226.13206 162.571034 
L 226.758807 159.234207 
L 227.385553 160.037517 
L 228.012299 162.262069 
L 228.639045 165.042759 
L 229.265792 164.424828 
L 229.892538 164.857379 
L 230.519284 163.250759 
L 231.14603 162.571034 
L 231.772776 164.486621 
L 232.399523 156.70069 
L 233.026269 156.268138 
L 233.653015 157.998345 
L 234.279761 157.874759 
L 234.906508 158.430897 
L 235.533254 156.947862 
L 236.16 155.959172 
L 237.413492 149.594483 
L 238.040239 148.791172 
L 238.666985 137.977379 
L 239.293731 136.926897 
L 239.920477 137.544828 
L 240.547224 136.98869 
L 241.17397 141.437793 
L 241.800716 134.516966 
L 242.427462 133.157517 
L 243.054208 132.230621 
L 243.680955 134.084414 
L 244.307701 133.590069 
L 244.934447 133.528276 
L 245.561193 134.455172 
L 246.18794 132.045241 
L 246.814686 130.129655 
L 247.441432 130.376828 
L 248.068178 131.489103 
L 248.694925 134.084414 
L 249.321671 135.258483 
L 249.948417 135.752828 
L 250.575163 137.483034 
L 251.828656 137.915586 
L 253.082148 127.287172 
L 253.708894 132.045241 
L 254.335641 134.640552 
L 254.962387 132.910345 
L 255.589133 134.640552 
L 256.215879 135.752828 
L 256.842625 134.825931 
L 257.469372 135.443862 
L 258.722864 125.618759 
L 259.34961 130.315034 
L 259.976357 130.809379 
L 260.603103 132.230621 
L 261.229849 131.118345 
L 261.856595 130.747586 
L 262.483342 130.006069 
L 263.110088 128.02869 
L 263.736834 124.877241 
L 264.36358 125.000828 
L 264.990326 120.737103 
L 265.617073 121.231448 
L 266.243819 120.489931 
L 266.870565 120.242759 
L 267.497311 122.034759 
L 268.124058 128.893793 
L 268.750804 130.871172 
L 269.37755 129.758897 
L 270.004296 131.056552 
L 270.631042 130.191448 
L 271.257789 128.523034 
L 271.884535 128.399448 
L 272.511281 125.062621 
L 273.138027 127.225379 
L 273.764774 127.225379 
L 274.39152 128.02869 
L 275.018266 128.152276 
L 275.645012 127.84331 
L 276.271759 128.708414 
L 276.898505 130.006069 
L 277.525251 130.685793 
L 278.151997 128.832 
L 278.778743 126.360276 
L 279.40549 126.545655 
L 280.032236 124.25931 
L 280.658982 128.399448 
L 281.285728 129.882483 
L 282.539221 121.972966 
L 283.165967 120.984276 
L 283.792713 124.135724 
L 284.419459 120.366345 
L 285.046206 115.113931 
L 285.672952 112.951172 
L 286.299698 112.889379 
L 286.926444 113.816276 
L 287.553191 110.294069 
L 288.179937 110.541241 
L 288.806683 105.536 
L 289.433429 108.996414 
L 290.060176 107.945931 
L 290.686922 108.440276 
L 291.940414 104.794483 
L 292.56716 100.716138 
L 293.193907 102.817103 
L 293.820653 98.800552 
L 294.447399 96.267034 
L 295.074145 104.176552 
L 295.700892 101.704828 
L 296.327638 100.036414 
L 296.954384 100.16 
L 297.58113 98.368 
L 298.207876 98.862345 
L 298.834623 100.839724 
L 299.461369 105.412414 
L 300.088115 106.586483 
L 300.714861 110.973793 
L 301.341608 118.512552 
L 301.968354 115.855448 
L 303.221846 107.945931 
L 303.848592 107.698759 
L 304.475339 116.226207 
L 305.102085 116.782345 
L 305.728831 114.619586 
L 306.355577 111.468138 
L 306.982324 111.777103 
L 307.60907 113.939862 
L 308.235816 114.866759 
L 308.862562 115.175724 
L 309.489309 106.648276 
L 310.116055 106.710069 
L 310.742801 101.828414 
L 311.369547 92.621241 
L 311.996293 91.076414 
L 312.62304 94.660414 
L 313.249786 94.598621 
L 313.876532 93.053793 
L 314.503278 88.913655 
L 315.130025 92.621241 
L 315.756771 98.306207 
L 316.383517 100.036414 
L 317.010263 98.306207 
L 317.637009 95.092966 
L 318.263756 95.031172 
L 318.890502 91.385379 
L 319.517248 90.273103 
L 320.143994 82.610759 
L 320.770741 86.318345 
L 321.397487 93.177379 
L 322.024233 90.829241 
L 322.650979 90.520276 
L 323.277726 89.099034 
L 323.904472 90.025931 
L 324.531218 88.41931 
L 325.157964 90.705655 
L 325.78471 91.385379 
L 326.411457 94.413241 
L 327.038203 80.509793 
L 327.664949 81.189517 
L 328.918442 73.836138 
L 329.545188 73.403586 
L 330.171934 71.549793 
L 330.79868 72.600276 
L 331.425426 75.937103 
L 332.052173 69.263448 
L 332.678919 64.567172 
L 333.305665 64.196414 
L 333.932411 66.420966 
L 334.559158 63.763862 
L 335.185904 62.466207 
L 335.81265 59.191172 
L 337.066143 57.337379 
L 338.319635 58.078897 
L 338.946381 58.017103 
L 339.573127 53.691586 
L 340.199874 53.568 
L 340.82662 55.545379 
L 341.453366 56.534069 
L 342.080112 56.781241 
L 342.706859 58.017103 
L 343.960351 56.16331 
L 344.587097 58.944 
L 345.213843 60.179862 
L 345.84059 58.573241 
L 346.467336 59.623724 
L 347.094082 63.393103 
L 348.347575 74.454069 
L 348.974321 74.639448 
L 349.601067 75.133793 
L 350.227813 79.150345 
L 350.854559 78.408828 
L 351.481306 82.548966 
L 352.108052 78.779586 
L 352.734798 80.386207 
L 353.361544 79.953655 
L 353.988291 80.571586 
L 354.615037 79.953655 
L 355.241783 84.093793 
L 355.868529 74.763034 
L 356.495276 77.66731 
L 357.122022 80.015448 
L 357.748768 80.015448 
L 358.375514 83.105103 
L 360.255753 74.021517 
L 360.882499 75.998897 
L 361.509245 73.588966 
L 362.135992 69.078069 
L 362.762738 69.325241 
L 363.389484 68.151172 
L 364.01623 73.959724 
L 364.642976 74.021517 
L 365.269723 76.740414 
L 365.896469 70.931862 
L 366.523215 71.117241 
L 367.149961 71.673379 
L 367.776708 69.943172 
L 368.403454 73.774345 
L 369.0302 75.504552 
L 369.656946 75.689931 
L 370.283693 73.094621 
L 370.910439 73.032828 
L 371.537185 70.68469 
L 372.163931 79.64469 
L 372.790677 72.538483 
L 373.417424 75.566345 
L 374.04417 83.846621 
L 374.670916 75.010207 
L 375.297662 74.392276 
L 375.924409 71.858759 
L 376.551155 61.910069 
L 377.177901 60.365241 
L 377.804647 64.443586 
L 378.431393 64.752552 
L 379.05814 64.690759 
L 380.311632 70.128552 
L 380.938378 67.162483 
L 381.565125 70.004966 
L 382.191871 70.49931 
L 382.818617 76.431448 
L 384.07211 71.488 
L 384.698856 68.830897 
L 385.325602 67.965793 
L 385.952348 64.505379 
L 386.579094 65.864828 
L 387.205841 65.494069 
L 387.832587 64.443586 
L 389.086079 61.477517 
L 389.712826 70.931862 
L 390.339572 73.897931 
L 390.966318 74.886621 
L 391.593064 72.353103 
L 392.21981 71.240828 
L 392.846557 71.179034 
L 393.473303 68.769103 
L 394.100049 63.145931 
L 394.726795 71.549793 
L 395.353542 72.29131 
L 395.980288 72.785655 
L 396.607034 70.128552 
L 397.23378 72.167724 
L 398.487273 82.24 
L 398.487273 82.24 
" style="fill:none;stroke:#1f77b4;stroke-linecap:square;stroke-width:1.5;"/>
   </g>
   <g id="patch_3">
    <path d="M 57.6 307.584 
L 57.6 41.472 
" style="fill:none;stroke:#000000;stroke-linecap:square;stroke-linejoin:miter;stroke-width:0.8;"/>
   </g>
   <g id="patch_4">
    <path d="M 414.72 307.584 
L 414.72 41.472 
" style="fill:none;stroke:#000000;stroke-linecap:square;stroke-linejoin:miter;stroke-width:0.8;"/>
   </g>
   <g id="patch_5">
    <path d="M 57.6 307.584 
L 414.72 307.584 
" style="fill:none;stroke:#000000;stroke-linecap:square;stroke-linejoin:miter;stroke-width:0.8;"/>
   </g>
   <g id="patch_6">
    <path d="M 57.6 41.472 
L 414.72 41.472 
" style="fill:none;stroke:#000000;stroke-linecap:square;stroke-linejoin:miter;stroke-width:0.8;"/>
   </g>
  </g>
 </g>
 <defs>
  <clipPath id="pe5d67f05c7">
   <rect height="266.112" width="357.12" x="57.6" y="41.472"/>
  </clipPath>
 </defs>
</svg>
