<?xml version="1.0" encoding="utf-8" standalone="no"?>
<!DOCTYPE svg PUBLIC "-//W3C//DTD SVG 1.1//EN"
  "http://www.w3.org/Graphics/SVG/1.1/DTD/svg11.dtd">
<!-- Created with matplotlib (http://matplotlib.org/) -->
<svg height="345pt" version="1.1" viewBox="0 0 460 345" width="460pt" xmlns="http://www.w3.org/2000/svg" xmlns:xlink="http://www.w3.org/1999/xlink">
 <defs>
  <style type="text/css">
*{stroke-linecap:butt;stroke-linejoin:round;}
  </style>
 </defs>
 <g id="figure_1">
  <g id="patch_1">
   <path d="M 0 345.6 
L 460.8 345.6 
L 460.8 0 
L 0 0 
z
" style="fill:#ffffff;"/>
  </g>
  <g id="axes_1">
   <g id="patch_2">
    <path d="M 57.6 307.584 
L 414.72 307.584 
L 414.72 41.472 
L 57.6 41.472 
z
" style="fill:#ffffff;"/>
   </g>
   <g id="matplotlib.axis_1">
    <g id="xtick_1">
     <g id="line2d_1">
      <defs>
       <path d="M 0 0 
L 0 3.5 
" id="mc8233727c9" style="stroke:#000000;stroke-width:0.8;"/>
      </defs>
      <g>
       <use style="stroke:#000000;stroke-width:0.8;" x="73.832727" xlink:href="#mc8233727c9" y="307.584"/>
      </g>
     </g>
     <g id="text_1">
      <!-- 0 -->
      <defs>
       <path d="M 31.78125 66.40625 
Q 24.171875 66.40625 20.328125 58.90625 
Q 16.5 51.421875 16.5 36.375 
Q 16.5 21.390625 20.328125 13.890625 
Q 24.171875 6.390625 31.78125 6.390625 
Q 39.453125 6.390625 43.28125 13.890625 
Q 47.125 21.390625 47.125 36.375 
Q 47.125 51.421875 43.28125 58.90625 
Q 39.453125 66.40625 31.78125 66.40625 
z
M 31.78125 74.21875 
Q 44.046875 74.21875 50.515625 64.515625 
Q 56.984375 54.828125 56.984375 36.375 
Q 56.984375 17.96875 50.515625 8.265625 
Q 44.046875 -1.421875 31.78125 -1.421875 
Q 19.53125 -1.421875 13.0625 8.265625 
Q 6.59375 17.96875 6.59375 36.375 
Q 6.59375 54.828125 13.0625 64.515625 
Q 19.53125 74.21875 31.78125 74.21875 
z
" id="DejaVuSans-30"/>
      </defs>
      <g transform="translate(70.651477 322.182437)scale(0.1 -0.1)">
       <use xlink:href="#DejaVuSans-30"/>
      </g>
     </g>
    </g>
    <g id="xtick_2">
     <g id="line2d_2">
      <g>
       <use style="stroke:#000000;stroke-width:0.8;" x="120.545612" xlink:href="#mc8233727c9" y="307.584"/>
      </g>
     </g>
     <g id="text_2">
      <!-- 100 -->
      <defs>
       <path d="M 12.40625 8.296875 
L 28.515625 8.296875 
L 28.515625 63.921875 
L 10.984375 60.40625 
L 10.984375 69.390625 
L 28.421875 72.90625 
L 38.28125 72.90625 
L 38.28125 8.296875 
L 54.390625 8.296875 
L 54.390625 0 
L 12.40625 0 
z
" id="DejaVuSans-31"/>
      </defs>
      <g transform="translate(111.001862 322.182437)scale(0.1 -0.1)">
       <use xlink:href="#DejaVuSans-31"/>
       <use x="63.623047" xlink:href="#DejaVuSans-30"/>
       <use x="127.246094" xlink:href="#DejaVuSans-30"/>
      </g>
     </g>
    </g>
    <g id="xtick_3">
     <g id="line2d_3">
      <g>
       <use style="stroke:#000000;stroke-width:0.8;" x="167.258496" xlink:href="#mc8233727c9" y="307.584"/>
      </g>
     </g>
     <g id="text_3">
      <!-- 200 -->
      <defs>
       <path d="M 19.1875 8.296875 
L 53.609375 8.296875 
L 53.609375 0 
L 7.328125 0 
L 7.328125 8.296875 
Q 12.9375 14.109375 22.625 23.890625 
Q 32.328125 33.6875 34.8125 36.53125 
Q 39.546875 41.84375 41.421875 45.53125 
Q 43.3125 49.21875 43.3125 52.78125 
Q 43.3125 58.59375 39.234375 62.25 
Q 35.15625 65.921875 28.609375 65.921875 
Q 23.96875 65.921875 18.8125 64.3125 
Q 13.671875 62.703125 7.8125 59.421875 
L 7.8125 69.390625 
Q 13.765625 71.78125 18.9375 73 
Q 24.125 74.21875 28.421875 74.21875 
Q 39.75 74.21875 46.484375 68.546875 
Q 53.21875 62.890625 53.21875 53.421875 
Q 53.21875 48.921875 51.53125 44.890625 
Q 49.859375 40.875 45.40625 35.40625 
Q 44.1875 33.984375 37.640625 27.21875 
Q 31.109375 20.453125 19.1875 8.296875 
z
" id="DejaVuSans-32"/>
      </defs>
      <g transform="translate(157.714746 322.182437)scale(0.1 -0.1)">
       <use xlink:href="#DejaVuSans-32"/>
       <use x="63.623047" xlink:href="#DejaVuSans-30"/>
       <use x="127.246094" xlink:href="#DejaVuSans-30"/>
      </g>
     </g>
    </g>
    <g id="xtick_4">
     <g id="line2d_4">
      <g>
       <use style="stroke:#000000;stroke-width:0.8;" x="213.97138" xlink:href="#mc8233727c9" y="307.584"/>
      </g>
     </g>
     <g id="text_4">
      <!-- 300 -->
      <defs>
       <path d="M 40.578125 39.3125 
Q 47.65625 37.796875 51.625 33 
Q 55.609375 28.21875 55.609375 21.1875 
Q 55.609375 10.40625 48.1875 4.484375 
Q 40.765625 -1.421875 27.09375 -1.421875 
Q 22.515625 -1.421875 17.65625 -0.515625 
Q 12.796875 0.390625 7.625 2.203125 
L 7.625 11.71875 
Q 11.71875 9.328125 16.59375 8.109375 
Q 21.484375 6.890625 26.8125 6.890625 
Q 36.078125 6.890625 40.9375 10.546875 
Q 45.796875 14.203125 45.796875 21.1875 
Q 45.796875 27.640625 41.28125 31.265625 
Q 36.765625 34.90625 28.71875 34.90625 
L 20.21875 34.90625 
L 20.21875 43.015625 
L 29.109375 43.015625 
Q 36.375 43.015625 40.234375 45.921875 
Q 44.09375 48.828125 44.09375 54.296875 
Q 44.09375 59.90625 40.109375 62.90625 
Q 36.140625 65.921875 28.71875 65.921875 
Q 24.65625 65.921875 20.015625 65.03125 
Q 15.375 64.15625 9.8125 62.3125 
L 9.8125 71.09375 
Q 15.4375 72.65625 20.34375 73.4375 
Q 25.25 74.21875 29.59375 74.21875 
Q 40.828125 74.21875 47.359375 69.109375 
Q 53.90625 64.015625 53.90625 55.328125 
Q 53.90625 49.265625 50.4375 45.09375 
Q 46.96875 40.921875 40.578125 39.3125 
z
" id="DejaVuSans-33"/>
      </defs>
      <g transform="translate(204.42763 322.182437)scale(0.1 -0.1)">
       <use xlink:href="#DejaVuSans-33"/>
       <use x="63.623047" xlink:href="#DejaVuSans-30"/>
       <use x="127.246094" xlink:href="#DejaVuSans-30"/>
      </g>
     </g>
    </g>
    <g id="xtick_5">
     <g id="line2d_5">
      <g>
       <use style="stroke:#000000;stroke-width:0.8;" x="260.684264" xlink:href="#mc8233727c9" y="307.584"/>
      </g>
     </g>
     <g id="text_5">
      <!-- 400 -->
      <defs>
       <path d="M 37.796875 64.3125 
L 12.890625 25.390625 
L 37.796875 25.390625 
z
M 35.203125 72.90625 
L 47.609375 72.90625 
L 47.609375 25.390625 
L 58.015625 25.390625 
L 58.015625 17.1875 
L 47.609375 17.1875 
L 47.609375 0 
L 37.796875 0 
L 37.796875 17.1875 
L 4.890625 17.1875 
L 4.890625 26.703125 
z
" id="DejaVuSans-34"/>
      </defs>
      <g transform="translate(251.140514 322.182437)scale(0.1 -0.1)">
       <use xlink:href="#DejaVuSans-34"/>
       <use x="63.623047" xlink:href="#DejaVuSans-30"/>
       <use x="127.246094" xlink:href="#DejaVuSans-30"/>
      </g>
     </g>
    </g>
    <g id="xtick_6">
     <g id="line2d_6">
      <g>
       <use style="stroke:#000000;stroke-width:0.8;" x="307.397148" xlink:href="#mc8233727c9" y="307.584"/>
      </g>
     </g>
     <g id="text_6">
      <!-- 500 -->
      <defs>
       <path d="M 10.796875 72.90625 
L 49.515625 72.90625 
L 49.515625 64.59375 
L 19.828125 64.59375 
L 19.828125 46.734375 
Q 21.96875 47.46875 24.109375 47.828125 
Q 26.265625 48.1875 28.421875 48.1875 
Q 40.625 48.1875 47.75 41.5 
Q 54.890625 34.8125 54.890625 23.390625 
Q 54.890625 11.625 47.5625 5.09375 
Q 40.234375 -1.421875 26.90625 -1.421875 
Q 22.3125 -1.421875 17.546875 -0.640625 
Q 12.796875 0.140625 7.71875 1.703125 
L 7.71875 11.625 
Q 12.109375 9.234375 16.796875 8.0625 
Q 21.484375 6.890625 26.703125 6.890625 
Q 35.15625 6.890625 40.078125 11.328125 
Q 45.015625 15.765625 45.015625 23.390625 
Q 45.015625 31 40.078125 35.4375 
Q 35.15625 39.890625 26.703125 39.890625 
Q 22.75 39.890625 18.8125 39.015625 
Q 14.890625 38.140625 10.796875 36.28125 
z
" id="DejaVuSans-35"/>
      </defs>
      <g transform="translate(297.853398 322.182437)scale(0.1 -0.1)">
       <use xlink:href="#DejaVuSans-35"/>
       <use x="63.623047" xlink:href="#DejaVuSans-30"/>
       <use x="127.246094" xlink:href="#DejaVuSans-30"/>
      </g>
     </g>
    </g>
    <g id="xtick_7">
     <g id="line2d_7">
      <g>
       <use style="stroke:#000000;stroke-width:0.8;" x="354.110033" xlink:href="#mc8233727c9" y="307.584"/>
      </g>
     </g>
     <g id="text_7">
      <!-- 600 -->
      <defs>
       <path d="M 33.015625 40.375 
Q 26.375 40.375 22.484375 35.828125 
Q 18.609375 31.296875 18.609375 23.390625 
Q 18.609375 15.53125 22.484375 10.953125 
Q 26.375 6.390625 33.015625 6.390625 
Q 39.65625 6.390625 43.53125 10.953125 
Q 47.40625 15.53125 47.40625 23.390625 
Q 47.40625 31.296875 43.53125 35.828125 
Q 39.65625 40.375 33.015625 40.375 
z
M 52.59375 71.296875 
L 52.59375 62.3125 
Q 48.875 64.0625 45.09375 64.984375 
Q 41.3125 65.921875 37.59375 65.921875 
Q 27.828125 65.921875 22.671875 59.328125 
Q 17.53125 52.734375 16.796875 39.40625 
Q 19.671875 43.65625 24.015625 45.921875 
Q 28.375 48.1875 33.59375 48.1875 
Q 44.578125 48.1875 50.953125 41.515625 
Q 57.328125 34.859375 57.328125 23.390625 
Q 57.328125 12.15625 50.6875 5.359375 
Q 44.046875 -1.421875 33.015625 -1.421875 
Q 20.359375 -1.421875 13.671875 8.265625 
Q 6.984375 17.96875 6.984375 36.375 
Q 6.984375 53.65625 15.1875 63.9375 
Q 23.390625 74.21875 37.203125 74.21875 
Q 40.921875 74.21875 44.703125 73.484375 
Q 48.484375 72.75 52.59375 71.296875 
z
" id="DejaVuSans-36"/>
      </defs>
      <g transform="translate(344.566283 322.182437)scale(0.1 -0.1)">
       <use xlink:href="#DejaVuSans-36"/>
       <use x="63.623047" xlink:href="#DejaVuSans-30"/>
       <use x="127.246094" xlink:href="#DejaVuSans-30"/>
      </g>
     </g>
    </g>
    <g id="xtick_8">
     <g id="line2d_8">
      <g>
       <use style="stroke:#000000;stroke-width:0.8;" x="400.822917" xlink:href="#mc8233727c9" y="307.584"/>
      </g>
     </g>
     <g id="text_8">
      <!-- 700 -->
      <defs>
       <path d="M 8.203125 72.90625 
L 55.078125 72.90625 
L 55.078125 68.703125 
L 28.609375 0 
L 18.3125 0 
L 43.21875 64.59375 
L 8.203125 64.59375 
z
" id="DejaVuSans-37"/>
      </defs>
      <g transform="translate(391.279167 322.182437)scale(0.1 -0.1)">
       <use xlink:href="#DejaVuSans-37"/>
       <use x="63.623047" xlink:href="#DejaVuSans-30"/>
       <use x="127.246094" xlink:href="#DejaVuSans-30"/>
      </g>
     </g>
    </g>
   </g>
   <g id="matplotlib.axis_2">
    <g id="ytick_1">
     <g id="line2d_9">
      <defs>
       <path d="M 0 0 
L -3.5 0 
" id="mda88d9230e" style="stroke:#000000;stroke-width:0.8;"/>
      </defs>
      <g>
       <use style="stroke:#000000;stroke-width:0.8;" x="57.6" xlink:href="#mda88d9230e" y="292.484479"/>
      </g>
     </g>
     <g id="text_9">
      <!-- 25 -->
      <g transform="translate(37.875 296.283697)scale(0.1 -0.1)">
       <use xlink:href="#DejaVuSans-32"/>
       <use x="63.623047" xlink:href="#DejaVuSans-35"/>
      </g>
     </g>
    </g>
    <g id="ytick_2">
     <g id="line2d_10">
      <g>
       <use style="stroke:#000000;stroke-width:0.8;" x="57.6" xlink:href="#mda88d9230e" y="258.353553"/>
      </g>
     </g>
     <g id="text_10">
      <!-- 50 -->
      <g transform="translate(37.875 262.152772)scale(0.1 -0.1)">
       <use xlink:href="#DejaVuSans-35"/>
       <use x="63.623047" xlink:href="#DejaVuSans-30"/>
      </g>
     </g>
    </g>
    <g id="ytick_3">
     <g id="line2d_11">
      <g>
       <use style="stroke:#000000;stroke-width:0.8;" x="57.6" xlink:href="#mda88d9230e" y="224.222628"/>
      </g>
     </g>
     <g id="text_11">
      <!-- 75 -->
      <g transform="translate(37.875 228.021846)scale(0.1 -0.1)">
       <use xlink:href="#DejaVuSans-37"/>
       <use x="63.623047" xlink:href="#DejaVuSans-35"/>
      </g>
     </g>
    </g>
    <g id="ytick_4">
     <g id="line2d_12">
      <g>
       <use style="stroke:#000000;stroke-width:0.8;" x="57.6" xlink:href="#mda88d9230e" y="190.091702"/>
      </g>
     </g>
     <g id="text_12">
      <!-- 100 -->
      <g transform="translate(31.5125 193.890921)scale(0.1 -0.1)">
       <use xlink:href="#DejaVuSans-31"/>
       <use x="63.623047" xlink:href="#DejaVuSans-30"/>
       <use x="127.246094" xlink:href="#DejaVuSans-30"/>
      </g>
     </g>
    </g>
    <g id="ytick_5">
     <g id="line2d_13">
      <g>
       <use style="stroke:#000000;stroke-width:0.8;" x="57.6" xlink:href="#mda88d9230e" y="155.960777"/>
      </g>
     </g>
     <g id="text_13">
      <!-- 125 -->
      <g transform="translate(31.5125 159.759995)scale(0.1 -0.1)">
       <use xlink:href="#DejaVuSans-31"/>
       <use x="63.623047" xlink:href="#DejaVuSans-32"/>
       <use x="127.246094" xlink:href="#DejaVuSans-35"/>
      </g>
     </g>
    </g>
    <g id="ytick_6">
     <g id="line2d_14">
      <g>
       <use style="stroke:#000000;stroke-width:0.8;" x="57.6" xlink:href="#mda88d9230e" y="121.829851"/>
      </g>
     </g>
     <g id="text_14">
      <!-- 150 -->
      <g transform="translate(31.5125 125.62907)scale(0.1 -0.1)">
       <use xlink:href="#DejaVuSans-31"/>
       <use x="63.623047" xlink:href="#DejaVuSans-35"/>
       <use x="127.246094" xlink:href="#DejaVuSans-30"/>
      </g>
     </g>
    </g>
    <g id="ytick_7">
     <g id="line2d_15">
      <g>
       <use style="stroke:#000000;stroke-width:0.8;" x="57.6" xlink:href="#mda88d9230e" y="87.698926"/>
      </g>
     </g>
     <g id="text_15">
      <!-- 175 -->
      <g transform="translate(31.5125 91.498144)scale(0.1 -0.1)">
       <use xlink:href="#DejaVuSans-31"/>
       <use x="63.623047" xlink:href="#DejaVuSans-37"/>
       <use x="127.246094" xlink:href="#DejaVuSans-35"/>
      </g>
     </g>
    </g>
    <g id="ytick_8">
     <g id="line2d_16">
      <g>
       <use style="stroke:#000000;stroke-width:0.8;" x="57.6" xlink:href="#mda88d9230e" y="53.568"/>
      </g>
     </g>
     <g id="text_16">
      <!-- 200 -->
      <g transform="translate(31.5125 57.367219)scale(0.1 -0.1)">
       <use xlink:href="#DejaVuSans-32"/>
       <use x="63.623047" xlink:href="#DejaVuSans-30"/>
       <use x="127.246094" xlink:href="#DejaVuSans-30"/>
      </g>
     </g>
    </g>
   </g>
   <g id="line2d_17">
    <path clip-path="url(#p269a0bdbe8)" d="M 73.832727 294.259287 
L 74.299856 295.488 
L 74.766985 293.849716 
L 75.234114 293.440144 
L 76.6355 286.613959 
L 77.102629 279.378203 
L 77.569758 277.739919 
L 78.036887 281.153011 
L 78.504016 276.647729 
L 78.971145 276.784253 
L 79.438273 276.374682 
L 79.905402 271.323305 
L 80.372531 272.415494 
L 80.83966 273.098113 
L 81.306789 275.419016 
L 81.773918 281.83563 
L 82.241046 280.197345 
L 82.708175 279.651251 
L 83.175304 280.060822 
L 83.642433 271.050257 
L 84.109562 269.275449 
L 84.576691 273.507684 
L 85.510948 274.326826 
L 85.978077 277.466871 
L 86.445206 277.876442 
L 86.912335 277.876442 
L 87.379464 256.442221 
L 87.846593 258.217029 
L 88.313721 243.745517 
L 88.78085 244.564659 
L 89.247979 244.564659 
L 89.715108 240.878519 
L 90.182237 238.557616 
L 91.116494 235.827142 
L 91.583623 232.277526 
L 92.050752 247.158609 
L 92.517881 247.158609 
L 92.98501 268.592831 
L 93.452139 270.094591 
L 93.919267 259.036172 
L 94.386396 259.445743 
L 94.853525 260.264885 
L 95.320654 258.353553 
L 95.787783 257.807458 
L 96.254912 255.350032 
L 96.722041 255.213508 
L 97.189169 245.929896 
L 97.656298 246.06642 
L 98.123427 242.653327 
L 98.590556 251.936939 
L 99.057685 240.741995 
L 99.524814 240.195901 
L 99.991942 242.653327 
L 100.459071 239.513282 
L 100.9262 246.885562 
L 101.393329 245.656849 
L 101.860458 257.397887 
L 102.327587 258.763124 
L 102.794716 262.858835 
L 103.261844 262.039693 
L 103.728973 257.670935 
L 104.196102 247.295133 
L 104.663231 223.540009 
L 105.597489 217.396442 
L 106.064617 226.270483 
L 106.531746 221.628677 
L 106.998875 214.392921 
L 107.466004 209.614591 
L 107.933133 211.662447 
L 108.400262 227.362673 
L 109.334519 249.069941 
L 109.801648 240.741995 
L 110.268777 225.451341 
L 111.203035 212.754637 
L 111.670164 199.511837 
L 112.137292 197.463982 
L 112.604421 193.231747 
L 113.07155 193.368271 
L 114.005808 197.054411 
L 114.940065 220.673011 
L 115.407194 226.407007 
L 115.874323 228.591386 
L 116.341452 246.06642 
L 116.808581 251.936939 
L 117.27571 234.871476 
L 117.742838 234.598429 
L 118.209967 220.399964 
L 118.677096 231.731431 
L 120.078483 191.729986 
L 120.545612 195.143079 
L 121.01274 196.371792 
L 121.479869 190.091702 
L 121.946998 204.426691 
L 122.414127 189.818655 
L 122.881256 200.877074 
L 123.348385 188.589941 
L 123.815513 179.852424 
L 124.282642 185.040325 
L 124.749771 181.90028 
L 126.151158 129.475178 
L 126.618286 119.781995 
L 127.085415 121.283756 
L 127.552544 101.897391 
L 128.019673 109.133147 
L 128.486802 119.372424 
L 128.953931 112.682763 
L 129.888188 140.397074 
L 130.822446 165.244388 
L 131.289575 158.964298 
L 131.756704 174.391476 
L 132.223833 178.760235 
L 132.690961 158.554727 
L 133.15809 148.315449 
L 133.625219 154.59554 
L 134.092348 137.803124 
L 134.559477 125.515991 
L 135.026606 110.088813 
L 135.493734 113.228858 
L 135.960863 121.147233 
L 136.427992 109.952289 
L 136.895121 104.764388 
L 137.36225 104.764388 
L 137.829379 111.590573 
L 138.296508 120.737661 
L 138.763636 114.730619 
L 139.230765 116.232379 
L 139.697894 125.515991 
L 140.165023 109.542718 
L 140.632152 112.273192 
L 141.099281 99.849535 
L 141.566409 109.679242 
L 142.033538 122.375946 
L 142.500667 123.331612 
L 142.967796 112.409716 
L 143.434925 112.409716 
L 143.902054 119.781995 
L 144.369182 122.375946 
L 144.836311 133.024795 
L 145.30344 136.847458 
L 145.770569 153.366826 
L 146.237698 143.53712 
L 146.704827 130.840415 
L 147.171956 127.154275 
L 147.639084 135.345698 
L 148.106213 153.230302 
L 148.573342 144.356262 
L 149.040471 143.127549 
L 149.5076 142.991025 
L 149.974729 139.031837 
L 150.441857 129.338655 
L 150.908986 134.526555 
L 151.376115 141.35274 
L 151.843244 137.257029 
L 152.310373 124.560325 
L 152.777502 106.67572 
L 153.24463 106.67572 
L 153.711759 106.539196 
L 154.178888 111.181002 
L 154.646017 111.863621 
L 155.580275 134.253508 
L 156.047404 129.202131 
L 156.514532 150.499828 
L 156.981661 157.326014 
L 157.915919 173.026239 
L 158.383048 168.657481 
L 158.850177 161.694772 
L 159.317305 150.226781 
L 159.784434 132.4787 
L 160.251563 129.748226 
L 160.718692 142.991025 
L 161.65295 128.519512 
L 162.587207 139.441409 
L 163.054336 130.976939 
L 163.521465 137.6666 
L 163.988594 141.898835 
L 164.455723 143.264072 
L 164.922852 136.028316 
L 165.857109 107.358339 
L 166.324238 116.778474 
L 166.791367 101.897391 
L 167.258496 96.163395 
L 167.725625 96.163395 
L 168.192753 81.282312 
L 168.659882 77.050077 
L 169.127011 78.005743 
L 169.59414 71.316081 
L 170.061269 71.725652 
L 170.528398 71.725652 
L 170.995526 62.305517 
L 171.462655 62.305517 
L 171.929784 56.298474 
L 173.331171 56.298474 
L 173.7983 60.257661 
L 174.732557 73.773508 
L 175.199686 77.459648 
L 175.666815 77.459648 
L 176.133944 85.378023 
L 177.53533 85.378023 
L 178.002459 92.886826 
L 179.403846 72.681318 
L 179.870974 82.511025 
L 180.338103 82.511025 
L 180.805232 77.732695 
L 181.272361 79.780551 
L 181.73949 79.780551 
L 182.206619 81.418835 
L 182.673748 73.910032 
L 183.608005 82.237977 
L 184.075134 82.237977 
L 184.542263 68.722131 
L 185.009392 69.541273 
L 185.476521 66.401228 
L 185.943649 66.401228 
L 186.410778 68.31256 
L 186.877907 66.674275 
L 187.345036 66.674275 
L 187.812165 74.046555 
L 188.279294 76.094411 
L 188.746422 76.094411 
L 189.213551 87.152831 
L 189.68068 86.333688 
L 190.147809 86.333688 
L 191.082067 82.374501 
L 192.016324 82.374501 
L 192.483453 70.90651 
L 192.950582 64.62642 
L 193.417711 64.62642 
L 193.88484 53.568 
L 197.154742 53.568 
L 197.621871 56.434998 
L 198.088999 68.31256 
L 200.424644 68.31256 
L 200.891772 69.677797 
L 201.82603 69.677797 
L 202.293159 66.810799 
L 202.760288 54.933237 
L 204.628803 54.933237 
L 205.095932 66.537752 
L 205.563061 65.172515 
L 206.03019 65.172515 
L 206.497319 71.862176 
L 206.964447 71.862176 
L 207.431576 76.913553 
L 207.898705 83.876262 
L 208.365834 83.876262 
L 208.832963 91.248542 
L 209.300092 103.535675 
L 209.76722 100.941725 
L 210.234349 105.037436 
L 210.701478 122.102898 
L 211.168607 124.833372 
L 211.635736 143.264072 
L 212.102865 139.577932 
L 212.569993 132.615223 
L 213.037122 134.116984 
L 213.504251 138.485743 
L 213.97138 139.714456 
L 214.438509 140.533598 
L 214.905638 144.083214 
L 215.372767 136.16484 
L 215.839895 138.75879 
L 216.307024 132.205652 
L 216.774153 144.219738 
L 217.241282 152.820731 
L 217.708411 151.318971 
L 218.17554 145.721499 
L 218.642668 138.75879 
L 219.109797 135.755269 
L 219.576926 138.212695 
L 220.044055 132.205652 
L 220.511184 128.519512 
L 220.978313 121.010709 
L 221.445441 108.040957 
L 221.91257 99.439964 
L 222.379699 99.439964 
L 222.846828 93.296397 
L 223.313957 96.026871 
L 224.248215 82.511025 
L 224.715343 79.37098 
L 225.182472 71.043034 
L 225.649601 66.674275 
L 226.11673 75.138745 
L 227.518116 75.138745 
L 227.985245 65.855133 
L 228.452374 65.855133 
L 228.919503 62.442041 
L 230.320889 62.442041 
L 230.788018 53.568 
L 233.590791 53.568 
L 234.05792 56.025427 
L 234.525049 56.025427 
L 234.992178 59.711567 
L 235.459307 60.121138 
L 235.926436 68.858655 
L 236.393564 68.858655 
L 236.860693 75.821363 
L 237.327822 85.241499 
L 237.794951 85.241499 
L 238.26208 98.074727 
L 238.729209 97.392108 
L 239.663466 111.317526 
L 240.130595 110.907955 
L 240.597724 105.173959 
L 241.064853 105.173959 
L 241.531982 98.211251 
L 241.999111 93.02335 
L 242.466239 102.716533 
L 242.933368 89.883305 
L 243.400497 95.6173 
L 243.867626 94.661634 
L 244.334755 85.514546 
L 244.801884 85.514546 
L 245.269012 90.975494 
L 245.736141 98.484298 
L 246.20327 108.177481 
L 246.670399 110.225336 
L 247.137528 102.033914 
L 247.604657 107.904433 
L 248.538914 95.6173 
L 249.006043 99.986059 
L 249.473172 119.235901 
L 249.940301 119.099377 
L 250.40743 119.099377 
L 250.874559 111.590573 
L 251.341687 107.76791 
L 251.808816 111.863621 
L 252.275945 119.099377 
L 253.677332 156.779919 
L 254.14446 145.994546 
L 254.611589 155.278158 
L 255.078718 158.827774 
L 255.545847 167.701815 
L 256.012976 171.114907 
L 256.480105 171.93405 
L 256.947233 173.845381 
L 257.414362 169.340099 
L 257.881491 166.882673 
L 258.34862 151.045923 
L 258.815749 151.592018 
L 259.282878 144.219738 
L 259.750007 148.451973 
L 260.217135 145.858023 
L 260.684264 141.898835 
L 261.151393 145.858023 
L 261.618522 130.840415 
L 262.085651 121.283756 
L 262.55278 124.287278 
L 263.019908 120.874185 
L 263.487037 111.863621 
L 263.954166 114.184524 
L 264.421295 98.893869 
L 264.888424 90.4294 
L 265.355553 88.518068 
L 265.822681 78.142266 
L 266.756939 78.142266 
L 267.224068 66.128181 
L 268.158326 66.128181 
L 268.625455 53.568 
L 279.836547 53.568 
L 280.303676 55.479332 
L 281.237933 55.479332 
L 281.705062 77.323124 
L 284.507835 77.323124 
L 284.974964 75.411792 
L 285.909222 75.411792 
L 286.376351 53.568 
L 294.78467 53.568 
L 295.251799 61.622898 
L 295.718927 61.622898 
L 296.186056 63.397707 
L 297.120314 63.397707 
L 297.587443 63.670754 
L 298.5217 63.670754 
L 298.988829 72.271747 
L 299.455958 75.411792 
L 299.923087 68.858655 
L 300.390216 72.271747 
L 300.857345 73.773508 
L 301.791602 87.152831 
L 302.258731 97.255585 
L 302.72586 97.528632 
L 303.192989 105.310483 
L 304.127247 98.347774 
L 304.594375 101.214772 
L 305.061504 100.39563 
L 305.528633 101.897391 
L 305.995762 99.986059 
L 306.462891 103.945246 
L 306.93002 95.6173 
L 307.397148 95.344253 
L 307.864277 98.211251 
L 308.331406 97.938203 
L 308.798535 103.808722 
L 309.265664 99.439964 
L 309.732793 96.846014 
L 310.199922 96.436442 
L 310.66705 92.886826 
L 311.134179 82.647549 
L 311.601308 80.599693 
L 312.068437 83.05712 
L 312.535566 76.230935 
L 313.002695 77.869219 
L 313.469823 74.729174 
L 314.404081 74.729174 
L 314.87121 72.271747 
L 315.338339 70.633463 
L 315.805468 71.316081 
L 316.272596 71.316081 
L 316.739725 68.858655 
L 317.206854 65.035991 
L 317.673983 58.892424 
L 318.141112 56.16195 
L 318.608241 57.527187 
L 319.07537 57.527187 
L 319.542498 55.615856 
L 320.009627 55.615856 
L 320.476756 54.933237 
L 322.8124 54.933237 
L 323.279529 54.523666 
L 327.483689 54.523666 
L 327.950818 53.568 
L 330.753591 53.568 
L 331.220719 56.16195 
L 332.622106 56.16195 
L 333.089235 58.073282 
L 334.023492 58.073282 
L 334.490621 58.209806 
L 335.424879 58.209806 
L 335.892008 55.615856 
L 337.293394 55.615856 
L 337.760523 53.704524 
L 338.694781 53.704524 
L 339.16191 53.568 
L 364.853996 53.568 
L 365.321125 55.206284 
L 368.123898 55.206284 
L 368.591027 59.301995 
L 369.525284 59.301995 
L 369.992413 57.663711 
L 370.459542 57.663711 
L 370.926671 62.988135 
L 371.3938 63.397707 
L 372.795186 63.397707 
L 373.262315 59.301995 
L 374.196573 59.301995 
L 374.663702 61.759422 
L 375.130831 61.759422 
L 375.597959 56.434998 
L 376.065088 56.025427 
L 378.867861 56.025427 
L 379.33499 53.568 
L 389.611825 53.568 
L 390.078954 54.114095 
L 390.546082 54.114095 
L 391.013211 54.933237 
L 393.815984 54.933237 
L 394.283113 59.301995 
L 394.750242 67.356894 
L 395.217371 67.902989 
L 395.6845 70.633463 
L 396.151629 81.828406 
L 396.618757 81.828406 
L 397.553015 96.982537 
L 398.020144 106.129625 
L 398.487273 112.95581 
L 398.487273 112.95581 
" style="fill:none;stroke:#1f77b4;stroke-linecap:square;stroke-width:1.5;"/>
   </g>
   <g id="line2d_18">
    <path clip-path="url(#p269a0bdbe8)" d="M 73.832727 60.394185 
L 398.487273 60.394185 
L 398.487273 60.394185 
" style="fill:none;stroke:#ff7f0e;stroke-linecap:square;stroke-width:1.5;"/>
   </g>
   <g id="patch_3">
    <path d="M 57.6 307.584 
L 57.6 41.472 
" style="fill:none;stroke:#000000;stroke-linecap:square;stroke-linejoin:miter;stroke-width:0.8;"/>
   </g>
   <g id="patch_4">
    <path d="M 414.72 307.584 
L 414.72 41.472 
" style="fill:none;stroke:#000000;stroke-linecap:square;stroke-linejoin:miter;stroke-width:0.8;"/>
   </g>
   <g id="patch_5">
    <path d="M 57.6 307.584 
L 414.72 307.584 
" style="fill:none;stroke:#000000;stroke-linecap:square;stroke-linejoin:miter;stroke-width:0.8;"/>
   </g>
   <g id="patch_6">
    <path d="M 57.6 41.472 
L 414.72 41.472 
" style="fill:none;stroke:#000000;stroke-linecap:square;stroke-linejoin:miter;stroke-width:0.8;"/>
   </g>
  </g>
 </g>
 <defs>
  <clipPath id="p269a0bdbe8">
   <rect height="266.112" width="357.12" x="57.6" y="41.472"/>
  </clipPath>
 </defs>
</svg>
